<svg width="381" height="203" viewBox="0 0 381 203" fill="none" xmlns="http://www.w3.org/2000/svg">
<g id="card">
<g id="whiteBackground" filter="url(#filter0_d_135_116)">
<rect x="4" y="2" width="373" height="195" rx="4" fill="white"/>
</g>
<g id="orangeCircle">
<mask id="mask0_135_116" style="mask-type:alpha" maskUnits="userSpaceOnUse" x="4" y="2" width="373" height="195">
<rect id="Rectangle 15" x="4" y="2" width="373" height="195" rx="4" fill="white"/>
</mask>
<g mask="url(#mask0_135_116)">
<circle id="Ellipse 8" cx="292.5" cy="64.5" r="107.5" fill="#FFA41D"/>
</g>
</g>
<text id="Identification: 123456789" fill="#1B1B1B" xml:space="preserve" style="white-space: pre" font-family="Inter" font-size="12" letter-spacing="0em"><tspan x="20" y="134.864">Identification: {studentId}</tspan></text>
<text id="Dave McKay" fill="#1B1B1B" xml:space="preserve" style="white-space: pre" font-family="Inter" font-size="18" letter-spacing="0em"><tspan x="20" y="113.545">{firstName} {lastName}</tspan></text>
<text id="Issued: 10.09.2024" fill="#1B1B1B" xml:space="preserve" style="white-space: pre" font-family="Inter" font-size="12" letter-spacing="0em"><tspan x="20" y="147.864">Issued: {issueDate}</tspan></text>
<g id="Logo">
<path fill-rule="evenodd" clip-rule="evenodd" d="M78.558 14.0418C78.6138 13.9861 78.7043 13.9861 78.7601 14.0418L79.6692 14.951C79.725 15.0068 79.725 15.0972 79.6692 15.153C79.6134 15.2088 79.5229 15.2088 79.4672 15.153L78.8019 14.4877L78.8019 90.5123L79.4672 89.847C79.523 89.7912 79.6134 89.7912 79.6692 89.847C79.725 89.9028 79.725 89.9932 79.6692 90.049L78.7601 90.9582C78.7043 91.0139 78.6138 91.0139 78.558 90.9582L77.6489 90.049C77.5931 89.9932 77.5931 89.9028 77.6489 89.847C77.7047 89.7912 77.7951 89.7912 77.8509 89.847L78.5162 90.5123L78.5162 14.4877L77.8509 15.153C77.7951 15.2088 77.7047 15.2088 77.6489 15.153C77.5931 15.0972 77.5931 15.0068 77.6489 14.951L78.558 14.0418Z" fill="#D3D3D3"/>
<path fill-rule="evenodd" clip-rule="evenodd" d="M15.4836 43.6984C15.4566 43.6242 15.4948 43.5423 15.569 43.5153L16.7772 43.0758C16.8514 43.0488 16.9334 43.0871 16.9603 43.1612C16.9873 43.2354 16.9491 43.3173 16.8749 43.3443L15.9908 43.6659L96.5085 81.2314L96.1869 80.3473C96.1599 80.2731 96.1982 80.1912 96.2723 80.1642C96.3465 80.1372 96.4284 80.1755 96.4554 80.2496L96.8949 81.4579C96.9219 81.532 96.8836 81.614 96.8095 81.6409L95.6012 82.0804C95.5271 82.1074 95.4451 82.0692 95.4181 81.995C95.3912 81.9209 95.4294 81.8389 95.5036 81.8119L96.3877 81.4903L15.87 43.9248L16.1916 44.809C16.2185 44.8831 16.1803 44.9651 16.1061 44.9921C16.032 45.019 15.95 44.9808 15.9231 44.9067L15.4836 43.6984Z" fill="#D3D3D3"/>
<path fill-rule="evenodd" clip-rule="evenodd" d="M15.5074 60.0681C15.4337 60.0399 15.3969 59.9572 15.4252 59.8836L15.8857 58.6832C15.914 58.6095 15.9966 58.5727 16.0703 58.601C16.1439 58.6292 16.1807 58.7119 16.1525 58.7855L15.8155 59.6639L96.3282 23.8017L95.4498 23.4647C95.3762 23.4364 95.3394 23.3538 95.3676 23.2801C95.3959 23.2065 95.4785 23.1697 95.5522 23.1979L96.7526 23.6585C96.8262 23.6868 96.863 23.7694 96.8348 23.8431L96.3742 25.0435C96.346 25.1171 96.2633 25.1539 96.1897 25.1257C96.116 25.0974 96.0792 25.0148 96.1075 24.9411L96.4445 24.0627L15.9317 59.9249L16.8101 60.2619C16.8838 60.2902 16.9206 60.3728 16.8923 60.4465C16.8641 60.5201 16.7814 60.5569 16.7078 60.5287L15.5074 60.0681Z" fill="#D3D3D3"/>
<path d="M44.7304 52C44.7304 57.9173 39.9335 62.7143 34.0162 62.7143C28.0988 62.7143 23.3019 57.9173 23.3019 52C23.3019 46.0827 28.0988 41.2857 34.0162 41.2857C39.9335 41.2857 44.7304 46.0827 44.7304 52Z" fill="#31C63F"/>
<path d="M89.3019 32.7143C89.3019 38.6316 84.5049 43.4286 78.5876 43.4286C72.6703 43.4286 67.8733 38.6316 67.8733 32.7143C67.8733 26.797 72.6703 22 78.5876 22C84.5049 22 89.3019 26.797 89.3019 32.7143Z" fill="#FFA41D"/>
<path d="M89.3019 72.1428C89.3019 78.0602 84.5049 82.8571 78.5876 82.8571C72.6703 82.8571 67.8733 78.0602 67.8733 72.1428C67.8733 66.2255 72.6703 61.4286 78.5876 61.4286C84.5049 61.4286 89.3019 66.2255 89.3019 72.1428Z" fill="#F323C6"/>
<path d="M35.4408 57.4286H32.9088L29.156 47.3839H31.981L34.7642 55.4685L37.2824 47.3839H38.9983L35.4408 57.4286Z" fill="white"/>
<path d="M83.8139 32.8209C83.8139 33.3092 83.7488 33.7742 83.6186 34.216C83.4884 34.6531 83.3047 35.0577 83.0675 35.4297C82.835 35.8017 82.556 36.1389 82.2304 36.4411C81.9049 36.7388 81.5445 36.9922 81.1493 37.2015C80.7586 37.4107 80.3378 37.5735 79.8867 37.6897C79.4403 37.8013 78.9799 37.8572 78.5056 37.8572H74.0761V27.8125H78.5056C78.9799 27.8125 79.4403 27.8683 79.8867 27.9799C80.3331 28.0915 80.7516 28.252 81.1423 28.4612C81.5375 28.6658 81.898 28.917 82.2235 29.2146C82.5536 29.5122 82.835 29.847 83.0675 30.219C83.3047 30.5864 83.4884 30.991 83.6186 31.4328C83.7488 31.8699 83.8139 32.3326 83.8139 32.8209ZM81.0028 32.8209C81.0028 32.2768 80.9353 31.7606 80.8005 31.2723C80.6703 30.7794 80.4657 30.3469 80.1866 29.9749C79.9076 29.6029 79.5519 29.3076 79.1194 29.089C78.6916 28.8705 78.1777 28.7612 77.5778 28.7612H76.8454V36.8806H77.5778C78.1684 36.8806 78.6776 36.7713 79.1054 36.5527C79.5379 36.3295 79.8937 36.0319 80.1727 35.6599C80.4564 35.2832 80.6656 34.8507 80.8005 34.3625C80.9353 33.8742 81.0028 33.3603 81.0028 32.8209Z" fill="white"/>
<path d="M83.8139 72.5351C83.8139 73.0234 83.7488 73.4885 83.6186 73.9302C83.4884 74.3674 83.3047 74.7719 83.0675 75.144C82.835 75.516 82.556 75.8531 82.2304 76.1554C81.9049 76.453 81.5445 76.7065 81.1493 76.9157C80.7586 77.125 80.3378 77.2877 79.8867 77.404C79.4403 77.5156 78.9799 77.5714 78.5056 77.5714H74.0761V67.5268H78.5056C78.9799 67.5268 79.4403 67.5826 79.8867 67.6942C80.3331 67.8058 80.7516 67.9662 81.1423 68.1755C81.5375 68.3801 81.898 68.6312 82.2235 68.9288C82.5536 69.2265 82.835 69.5613 83.0675 69.9333C83.3047 70.3007 83.4884 70.7052 83.6186 71.147C83.7488 71.5842 83.8139 72.0469 83.8139 72.5351ZM81.0028 72.5351C81.0028 71.9911 80.9353 71.4749 80.8005 70.9866C80.6703 70.4937 80.4657 70.0612 80.1866 69.6892C79.9076 69.3171 79.5519 69.0218 79.1194 68.8033C78.6916 68.5847 78.1777 68.4754 77.5778 68.4754H76.8454V76.5949H77.5778C78.1684 76.5949 78.6776 76.4856 79.1054 76.267C79.5379 76.0438 79.8937 75.7462 80.1727 75.3741C80.4564 74.9975 80.6656 74.565 80.8005 74.0767C80.9353 73.5884 81.0028 73.0746 81.0028 72.5351Z" fill="white"/>
<path d="M78.2025 47.4286H79.2597V57.4286H78.2025V47.4286Z" fill="black"/>
<path d="M63.0541 47.4286H67.9112C68.6446 47.4286 69.2303 47.6381 69.6684 48.0571C70.116 48.4667 70.3398 49.0095 70.3398 49.6857V50.7286C70.3398 51.2333 70.1779 51.681 69.8541 52.0714C69.5303 52.4524 69.097 52.7238 68.5541 52.8857V52.9C68.8398 53.0524 69.097 53.2952 69.3255 53.6286C69.5636 53.9619 69.7446 54.3381 69.8684 54.7571L70.6541 57.4286H69.5684L68.7827 54.7571C68.6493 54.2905 68.416 53.9143 68.0827 53.6286C67.7589 53.3429 67.4017 53.2 67.0112 53.2H64.1112V57.4286H63.0541V47.4286ZM67.5398 52.2571C68.0636 52.2571 68.4827 52.119 68.797 51.8429C69.1208 51.5571 69.2827 51.1857 69.2827 50.7286V49.6286C69.2827 49.2476 69.1541 48.9429 68.897 48.7143C68.6398 48.4857 68.3017 48.3714 67.8827 48.3714H64.1112V52.2571H67.5398Z" fill="black"/>
<path d="M49.7026 57.4286C49.4073 57.4286 49.1787 57.3476 49.0168 57.1857C48.8549 57.0143 48.774 56.781 48.774 56.4857V47.4286H55.4883V48.3429H49.8311V51.8572H55.0597V52.7714H49.8311V56.5143H55.4883V57.4286H49.7026Z" fill="black"/>
</g>
<g id="barCode">
    <path id="Vector" d="M24 161H20V180H24V161Z" fill="#1B1B1B"/>
    <path id="Vector_2" d="M28 161H26V180H28V161Z" fill="#1B1B1B"/>
    <path id="Vector_3" d="M38 161H32V180H38V161Z" fill="#1B1B1B"/>
    <path id="Vector_4" d="M44 161H42V180H44V161Z" fill="#1B1B1B"/>
    <path id="Vector_5" d="M50 161H46V180H50V161Z" fill="#1B1B1B"/>
    <path id="Vector_6" d="M60 161H54V180H60V161Z" fill="#1B1B1B"/>
    <path id="Vector_7" d="M66 161H64V180H66V161Z" fill="#1B1B1B"/>
    <path id="Vector_8" d="M74 161H72V180H74V161Z" fill="#1B1B1B"/>
    <path id="Vector_9" d="M80 161H76V180H80V161Z" fill="#1B1B1B"/>
    <path id="Vector_10" d="M92 161H86V180H92V161Z" fill="#1B1B1B"/>
    <path id="Vector_11" d="M100 161H98V180H100V161Z" fill="#1B1B1B"/>
    <path id="Vector_12" d="M106 161H102V180H106V161Z" fill="#1B1B1B"/>
    <path id="Vector_13" d="M112 161H108V180H112V161Z" fill="#1B1B1B"/>
    <path id="Vector_14" d="M122 161H120V180H122V161Z" fill="#1B1B1B"/>
    <path id="Vector_15" d="M126 161H124V180H126V161Z" fill="#1B1B1B"/>
    <path id="Vector_16" d="M136 161H130V180H136V161Z" fill="#1B1B1B"/>
    <path id="Vector_17" d="M140 161H138V180H140V161Z" fill="#1B1B1B"/>
    <path id="Vector_18" d="M150 161H142V180H150V161Z" fill="#1B1B1B"/>
    <path id="Vector_19" d="M158 161H152V180H158V161Z" fill="#1B1B1B"/>
    <path id="Vector_20" d="M164 161H162V180H164V161Z" fill="#1B1B1B"/>
    <path id="Vector_21" d="M170 161H166V180H170V161Z" fill="#1B1B1B"/>
    <path id="Vector_22" d="M176 161H174V180H176V161Z" fill="#1B1B1B"/>
    <path id="Vector_23" d="M188 161H180V180H188V161Z" fill="#1B1B1B"/>
    <path id="Vector_24" d="M192 161H190V180H192V161Z" fill="#1B1B1B"/>
    <path id="Vector_25" d="M200 161H196V180H200V161Z" fill="#1B1B1B"/>
    <path id="Vector_26" d="M212 161H206V180H212V161Z" fill="#1B1B1B"/>
    <path id="Vector_27" d="M216 161H214V180H216V161Z" fill="#1B1B1B"/>
    <path id="Vector_28" d="M222 161H218V180H222V161Z" fill="#1B1B1B"/>
</g>
<path id="profilePicture" d="M294.5 83.9375C312.985 83.9375 327.969 68.9533 327.969 50.4688C327.969 31.9842 312.985 17 294.5 17C276.018 17 261.031 31.9842 261.031 50.4688C261.031 68.9533 276.022 83.9375 294.5 83.9375ZM294.5 28.1562C306.804 28.1562 316.812 38.1643 316.812 50.4688C316.812 62.7708 306.804 72.7812 294.5 72.7812C282.198 72.7812 272.188 62.7708 272.188 50.4688C272.188 38.1643 282.205 28.1562 294.5 28.1562ZM316.603 91.375H272.188C251.651 91.375 235 108.023 235 128.562C235 132.669 238.331 136 242.228 136H346.562C350.669 136 353.791 132.669 353.791 128.562C354 108.016 337.359 91.375 316.603 91.375ZM246.421 124.844C248.231 112.244 259.097 102.531 272.197 102.531H316.613C329.705 102.531 340.575 112.244 342.388 124.844H246.421Z" fill="white"/>
</g>
<defs>
</defs>
</svg>
